<?xml version="1.0" encoding="UTF-8"?>
<!DOCTYPE svg PUBLIC "-//W3C//DTD SVG 1.1//EN" "http://www.w3.org/Graphics/SVG/1.1/DTD/svg11.dtd">
<!-- Creator: CorelDRAW 2020 (64-Bit) -->
<svg xmlns="http://www.w3.org/2000/svg" xml:space="preserve" width="42.3332mm" height="25.3998mm" version="1.1" style="shape-rendering:geometricPrecision; text-rendering:geometricPrecision; image-rendering:optimizeQuality; fill-rule:evenodd; clip-rule:evenodd"
viewBox="0 0 4233.32 2539.98"
 xmlns:xlink="http://www.w3.org/1999/xlink"
 xmlns:xodm="http://www.corel.com/coreldraw/odm/2003">
 <defs>
  <style type="text/css">
   <![CDATA[
    .fil1 {fill:#0ABD7D;fill-rule:nonzero}
    .fil0 {fill:#224169;fill-rule:nonzero}
   ]]>
  </style>
 </defs>
 <g id="Capa_x0020_1">
  <metadata id="CorelCorpID_0Corel-Layer"/>
  <g id="_1673024345232">
   <polygon class="fil0" points="981.62,1239.38 908.86,1418.26 590.36,1418.26 539.23,1539.19 812.53,1539.19 742.72,1712.24 471.39,1712.24 370.14,1961.94 157.77,1961.94 451.71,1239.38 "/>
   <path class="fil0" d="M1090.74 1239.38c-15.07,0 -29.16,4.39 -42.28,13.27 -13.12,8.85 -22.96,20.8 -29.48,35.89l-12.8 33.4 -260.53 640 210.36 0 260.54 -640 0.04 0 33.41 -82.56 -159.26 0z"/>
   <path class="fil0" d="M1621.58 1402.54l-67.81 167.14 -175.01 0 -159.25 392.26 -211.37 0 294.93 -722.56c5.25,-13.13 14.89,-24.61 29.01,-34.45 14.08,-9.8 28.64,-14.72 43.72,-14.72l158.29 0 -87.48 212.33 174.97 0z"/>
   <path class="fil0" d="M2109.2 1806.13c5.93,7.52 6.56,17.2 1.96,29l-52.08 126.81 -556.43 0 23.6 -59.97c3.92,-9.16 10.32,-19.32 19.16,-30.48 8.84,-11.12 15.88,-19.68 21.12,-25.56l340.15 -356.86 -214.3 0c-13.12,0 -22.6,-3.92 -28.52,-11.8 -5.88,-7.89 -6.56,-17.36 -1.96,-28.53l52.12 -126.8 557.39 0 -21.64 51.12c-3.27,9.2 -9.32,19.53 -18.16,30.96 -8.84,11.48 -15.92,20.16 -21.16,26.04l-365.7 364.75 235.93 0c13.12,0 22.64,3.8 28.52,11.32z"/>
   <g>
    <path class="fil0" d="M2718.13 1240.34c37.36,3.27 67.16,12.16 89.45,26.55 22.28,14.4 38.67,32.29 49.16,53.57 10.48,21.32 15.08,44.6 13.76,69.8 -1.32,25.24 -6.87,50.33 -16.72,75.2 -10.48,26.25 -22.92,48.69 -37.32,67.37 -14.44,18.69 -29.68,34.89 -45.72,48.65 -16.08,13.75 -32.61,25.08 -49.65,33.91 -17.08,8.85 -33.44,16.57 -49.16,23.09 30.12,9.84 48.8,30.84 56.05,62.93 7.2,32.11 2.27,69.47 -14.77,112.08l-59.96 148.45 -183.86 0c-8.51,0 -16.87,-3.45 -25.03,-10.32 -8.24,-6.89 -9.68,-17.21 -4.44,-30.97l65.88 -162.2c4.56,-11.8 3.92,-21.97 -2,-30.49 -5.89,-8.52 -14.4,-12.8 -25.56,-12.8l-42.24 0 -99.33 246.78 -217.25 0 290.01 -722.56 308.7 0 0 0.96zm-92.41 209.41l0 0c4.56,-11.8 4.41,-21.97 -0.47,-30.48 -4.92,-8.52 -12.96,-12.77 -24.13,-12.77l-39.32 0 -46.2 113.05 40.32 0c11.12,0 22.44,-4.28 33.93,-12.8 11.43,-8.48 19.79,-18.68 25.03,-30.48l10.84 -26.52z"/>
    <path class="fil0" d="M3201.8 1310.14c43.92,0 81.24,6.56 112.08,19.68 30.81,13.12 54.05,32.44 69.82,58 15.71,25.57 23.39,56.84 23.07,93.88 -0.31,37.01 -9.68,79.13 -28,126.33 -9.2,22.93 -16.24,40.81 -21.16,53.57 -4.89,12.8 -9.33,24.08 -13.24,33.92 -3.96,9.84 -8.04,20 -12.32,30.48 -4.24,10.48 -10.33,25.25 -18.17,44.24 -19.03,44.57 -37.52,80.29 -55.56,107.13 -18.04,26.88 -37.68,47.36 -58.96,61.45 -21.32,14.12 -45.24,23.28 -71.76,27.56 -26.56,4.24 -57.21,6.35 -91.93,6.35l-98.32 0c-28.17,0 -55.21,-4.07 -81.09,-12.28 -25.92,-8.19 -46.72,-22.12 -62.45,-41.76 -15.72,-19.68 -24.56,-45.72 -26.52,-78.16 -2,-32.45 6.88,-72.92 26.52,-121.41 5.92,-15.08 12.44,-32.44 19.69,-52.12 6.52,-17.04 14.4,-37.68 23.56,-61.93 9.19,-24.24 20.32,-52.44 33.44,-84.56 25.57,-63.56 62.45,-114.53 110.6,-152.85 48.17,-38.37 106.98,-57.52 176.45,-57.52l44.25 0zm-28.53 221.21l0 0c5.25,-11.8 5.25,-21.8 0,-30 -5.24,-8.2 -13.43,-12.28 -24.55,-12.28 -16.41,0 -28.2,3.12 -35.4,9.32 -7.2,6.24 -14.4,17.88 -21.61,34.92l-86.53 222.17c-9.83,24.93 -12.8,40.96 -8.83,48.16 3.92,7.25 12.12,10.84 24.56,10.84 14.4,0 26.36,-3.11 35.88,-9.35 9.48,-6.21 17.52,-17.52 24.08,-33.93l92.4 -239.85z"/>
    <path class="fil0" d="M4087.54 1321.94l-264.77 667.07c-15.09,34.72 -31.45,64.56 -49.16,89.44 -17.69,24.92 -36.05,45.73 -55.04,62.45 -19.01,16.72 -38.01,29.99 -57.02,39.79 -19.03,9.85 -37.36,17.05 -55.08,21.65 -41.28,11.8 -83.88,13.12 -127.8,3.92l137.96 -233.53 -81.61 0c-28.16,0 -55.04,-4.07 -80.61,-12.28 -25.56,-8.19 -46.2,-22.12 -61.92,-41.76 -15.72,-19.68 -24.6,-45.72 -26.57,-78.16 -1.96,-32.45 6.89,-72.92 26.57,-121.41l152.37 -397.18 226.13 0 -167.13 433.54c-10.52,24.93 -13.63,40.96 -9.36,48.16 4.28,7.25 12.61,10.84 25.08,10.84 14.4,0 26.21,-3.11 35.41,-9.35 9.16,-6.21 17,-17.52 23.56,-33.93l174.01 -449.26 234.98 0z"/>
   </g>
  </g>
  <g id="_1672909495632">
   <g>
    <path class="fil1" d="M1156.29 2076.62l-5.39 11.29c-0.91,2.14 -2.57,3.12 -4.51,3.12l-64.12 0 -18.89 40.74 55.53 0c2.16,0 2.92,1.14 1.77,3.5l-5.29 11.5c-0.87,2.14 -2.51,2.91 -4.44,2.91l-55.91 0 -19.73 42.67 63.71 0c2.15,0 2.95,1.18 2.03,3.33l-5.29 11.5c-1.08,2.15 -2.51,2.91 -4.44,2.91l-80.85 0c-2.16,0 -2.94,-1.18 -1.81,-3.5l60.74 -130.56c0.92,-2.15 2.5,-2.91 4.45,-2.91l80.46 0c2.15,0 2.97,1.14 1.98,3.5z"/>
    <path class="fil1" d="M1295.87 2076.24l-61.69 132.29c-0.87,2.15 -2.53,3.12 -4.51,3.12l-6.02 0c-1.77,0 -2.69,-0.8 -3.22,-2.15l-32.67 -100.94 -45.87 98.62c-0.94,1.73 -2.51,2.91 -4.44,2.91l-13.27 0c-2.15,0 -2.85,-1.35 -1.98,-3.5l61.39 -131.91c0.96,-1.77 2.52,-2.95 4.46,-2.95l6.4 0c1.6,0 2.76,0.59 3.22,2.15l32.66 100.36 45.76 -98.21c0.76,-1.77 2.51,-2.91 4.44,-2.91l13.24 0c2.15,0 2.89,1.35 2.1,3.12z"/>
    <path class="fil1" d="M1308.48 2148.7c-8.68,26.72 3.59,44.83 29.5,44.83 11.88,0 22.12,-2.74 30.91,-6.44l18.2 -39.14c0.86,-2.15 2.57,-3.12 4.5,-3.12l12.68 0c2.11,0 3.13,1.14 1.99,3.5l-21.45 46.17c-1.01,1.94 -2.39,3.71 -4.91,4.89 -9.32,4.68 -26.64,12.47 -50.99,12.47 -37.03,0 -53.55,-25.95 -42.23,-60.8 14.89,-45.79 56.28,-79.71 102.5,-79.71 22.79,0 33.57,7.04 38.48,11.12 1.59,1.56 1.51,3.13 -0.38,4.69l-10.57 10.32c-1.9,1.72 -3.6,2.14 -5.04,1.13 -4.18,-3.87 -13.06,-8.93 -29.63,-8.93 -31.55,0 -61.86,23 -73.56,59.02z"/>
    <path class="fil1" d="M1405.48 2206.59l60.76 -130.56c0.91,-2.15 2.5,-2.91 4.44,-2.91l13.44 0c2.15,0 2.95,1.14 1.98,3.5l-60.71 130.56c-1.12,2.15 -2.51,2.91 -4.49,2.91l-13.6 0c-2.15,0 -2.95,-1.18 -1.82,-3.5z"/>
    <path class="fil1" d="M1633.43 2076.24l-61.69 132.29c-0.87,2.15 -2.54,3.12 -4.51,3.12l-6.03 0c-1.77,0 -2.69,-0.8 -3.22,-2.15l-32.67 -100.94 -45.86 98.62c-0.95,1.73 -2.51,2.91 -4.44,2.91l-13.28 0c-2.14,0 -2.85,-1.35 -1.98,-3.5l61.4 -131.91c0.96,-1.77 2.52,-2.95 4.46,-2.95l6.4 0c1.6,0 2.75,0.59 3.21,2.15l32.66 100.36 45.77 -98.21c0.74,-1.77 2.51,-2.91 4.45,-2.91l13.22 0c2.15,0 2.89,1.35 2.11,3.12z"/>
    <path class="fil1" d="M1754.17 2076.62l-5.39 11.29c-0.9,2.14 -2.58,3.12 -4.56,3.12l-64.08 0 -18.87 40.74 55.52 0c2.15,0 2.96,1.14 1.78,3.5l-5.3 11.5c-0.87,2.14 -2.51,2.91 -4.44,2.91l-55.91 0 -19.73 42.67 63.7 0c2.16,0 2.95,1.18 2.05,3.33l-5.31 11.5c-1.08,2.15 -2.5,2.91 -4.44,2.91l-80.85 0c-2.14,0 -2.94,-1.18 -1.81,-3.5l60.76 -130.56c0.9,-2.15 2.5,-2.91 4.44,-2.91l80.47 0c2.14,0 2.95,1.14 1.97,3.5z"/>
    <path class="fil1" d="M1867.72 2076.62l-5.39 11.29c-0.91,2.14 -2.58,3.12 -4.52,3.12l-64.12 0 -18.88 40.74 55.52 0c2.16,0 2.92,1.14 1.78,3.5l-5.3 11.5c-0.87,2.14 -2.51,2.91 -4.44,2.91l-55.91 0 -19.73 42.67 63.71 0c2.15,0 2.95,1.18 2.04,3.33l-5.3 11.5c-1.08,2.15 -2.51,2.91 -4.44,2.91l-80.85 0c-2.15,0 -2.94,-1.18 -1.81,-3.5l60.75 -130.56c0.91,-2.15 2.5,-2.91 4.44,-2.91l80.46 0c2.16,0 2.97,1.14 1.99,3.5z"/>
    <path class="fil1" d="M1930.86 2206.21c0.38,2.32 -1.27,3.88 -3.63,3.88l-15.58 0c-1.77,0 -2.66,-0.76 -2.95,-2.36l-7.75 -40.32c-2,0.21 -3.95,0.21 -6.09,0.21l-23.18 0 -18.25 39.35c-1.08,2.15 -2.58,3.12 -4.52,3.12l-13.43 0c-2.16,0 -2.95,-1.18 -1.82,-3.5l60.75 -130.56c0.91,-2.15 2.5,-2.91 4.44,-2.91l41.92 0c27.47,0 40.52,14.41 32.04,40.53 -7.92,24.36 -27.33,42.09 -51.31,49.89l9.36 42.67zm-27.98 -56.12l0 0c21.64,0 41.34,-13.26 48.04,-33.91 5.46,-16.77 -2.99,-25.53 -19.76,-25.53l-23.59 0 -27.66 59.44 22.97 0z"/>
    <path class="fil1" d="M1958.28 2206.59l60.76 -130.56c0.91,-2.15 2.49,-2.91 4.44,-2.91l13.43 0c2.15,0 2.96,1.14 1.99,3.5l-60.71 130.56c-1.13,2.15 -2.5,2.91 -4.49,2.91l-13.61 0c-2.14,0 -2.93,-1.18 -1.81,-3.5z"/>
    <path class="fil1" d="M2186.18 2076.24l-61.69 132.29c-0.86,2.15 -2.52,3.12 -4.51,3.12l-6.02 0c-1.78,0 -2.7,-0.8 -3.23,-2.15l-32.67 -100.94 -45.86 98.62c-0.94,1.73 -2.5,2.91 -4.44,2.91l-13.28 0c-2.14,0 -2.84,-1.35 -1.98,-3.5l61.4 -131.91c0.96,-1.77 2.52,-2.95 4.46,-2.95l6.4 0c1.61,0 2.76,0.59 3.22,2.15l32.66 100.36 45.77 -98.21c0.74,-1.77 2.5,-2.91 4.44,-2.91l13.23 0c2.14,0 2.89,1.35 2.1,3.12z"/>
    <path class="fil1" d="M2198.78 2148.7c-8.67,26.72 3.6,44.83 29.51,44.83 11.88,0 22.13,-2.74 30.91,-6.44l18.19 -39.14c0.87,-2.15 2.58,-3.12 4.52,-3.12l12.68 0c2.1,0 3.12,1.14 1.98,3.5l-21.45 46.17c-1.02,1.94 -2.39,3.71 -4.92,4.89 -9.31,4.68 -26.63,12.47 -50.99,12.47 -37.03,0 -53.54,-25.95 -42.21,-60.8 14.87,-45.79 56.28,-79.71 102.48,-79.71 22.8,0 33.58,7.04 38.48,11.12 1.61,1.56 1.52,3.13 -0.38,4.69l-10.56 10.32c-1.91,1.72 -3.61,2.14 -5.04,1.13 -4.18,-3.87 -13.07,-8.93 -29.63,-8.93 -31.55,0 -61.86,23 -73.57,59.02z"/>
    <path class="fil1" d="M2379.5 2198.59c-1.18,-1.18 -1,-2.91 0.86,-4.47l11.07 -10.74c1.74,-1.73 3.37,-1.94 4.7,-0.6 7.45,7.05 17.55,11.34 30.78,11.34 16.56,0 31.15,-8.21 35.89,-22.79 4.24,-13.06 -1.46,-18.33 -18.14,-23.38 -19.52,-6.45 -28.64,-16.77 -22.25,-36.45 7.91,-24.34 33.69,-40.15 63.31,-40.15 15.97,0 27.36,4.47 33.8,11.12 1.33,1.35 0.82,2.91 -0.86,4.47l-10.37 9.73c-1.69,1.56 -3.37,1.94 -4.76,0.81 -6.57,-5.48 -14.01,-8.39 -26.1,-8.39 -15.97,0 -29.38,6.4 -33.76,19.89 -3.55,10.9 3.12,16.17 17.73,21.02 20.47,6.61 30.22,16.17 23.05,38.21 -8.85,27.26 -35.03,43.65 -64.86,43.65 -18.49,0 -31.69,-4.89 -40.09,-13.27z"/>
    <path class="fil1" d="M2509.35 2150.86c15.38,-47.36 57.76,-79.51 100.27,-79.51 39.74,0 54.53,27.09 43.51,61.01 -15.57,47.9 -57.6,79.5 -100.07,79.5 -39.77,0 -54.66,-27.3 -43.71,-61zm122.09 -16.57l0 0c8.28,-25.53 -2.23,-44.61 -29.54,-44.61 -28.43,0 -58.82,22.21 -70.98,59.62 -8.36,25.74 2.57,44.23 30.04,44.23 28.26,0 58.2,-21.44 70.48,-59.24z"/>
    <path class="fil1" d="M2736.23 2195.68l-5.29 11.5c-0.86,2.15 -2.5,2.91 -4.44,2.91l-80.26 0c-2.15,0 -2.94,-1.18 -1.82,-3.5l60.76 -130.56c1.14,-2.36 2.5,-2.91 4.44,-2.91l13.44 0c2.15,0 3.17,1.14 1.98,3.5l-53.95 115.73 63.32 0c2.15,0 2.95,1.18 1.82,3.33z"/>
    <path class="fil1" d="M2768.6 2153l35.68 -76.76c1.08,-2.15 2.58,-3.12 4.52,-3.12l13.81 0c2.16,0 2.96,1.14 1.98,3.5l-36.23 77.94c-10.33,22.21 -5.56,38.76 17.61,38.76 23,0 43.01,-16.55 53.34,-38.76l36.36 -78.32c1.07,-2.15 2.57,-3.12 4.5,-3.12l13.44 0c2.16,0 2.97,1.14 1.99,3.5l-35.52 76.38c-17.88,38.17 -48.96,58.86 -82.28,58.86 -33.32,0 -47.04,-20.69 -29.2,-58.86z"/>
    <path class="fil1" d="M3040.81 2076.62l-5.23 11.29c-0.91,2.14 -2.56,3.12 -4.51,3.12l-40.74 0 -54.13 116.15c-0.87,2.15 -2.5,2.91 -4.44,2.91l-13.65 0c-2.15,0 -2.97,-0.97 -1.77,-3.5l53.73 -115.56 -40.53 0c-2.15,0 -2.95,-1.18 -1.98,-3.5l5.29 -11.5c1.08,-2.15 2.5,-2.91 4.44,-2.91l101.71 0c2.14,0 3.01,0.97 1.81,3.5z"/>
    <path class="fil1" d="M2999.09 2206.59l60.75 -130.56c0.91,-2.15 2.49,-2.91 4.44,-2.91l13.44 0c2.14,0 2.95,1.14 1.98,3.5l-60.71 130.56c-1.12,2.15 -2.51,2.91 -4.49,2.91l-13.6 0c-2.15,0 -2.94,-1.18 -1.81,-3.5z"/>
    <path class="fil1" d="M3071.04 2150.86c15.38,-47.36 57.76,-79.51 100.27,-79.51 39.74,0 54.52,27.09 43.51,61.01 -15.56,47.9 -57.6,79.5 -100.07,79.5 -39.77,0 -54.66,-27.3 -43.71,-61zm122.08 -16.57l0 0c8.29,-25.53 -2.22,-44.61 -29.53,-44.61 -28.43,0 -58.82,22.21 -70.98,59.62 -8.36,25.74 2.56,44.23 30.03,44.23 28.27,0 58.2,-21.44 70.48,-59.24z"/>
    <path class="fil1" d="M3379.83 2076.24l-61.68 132.29c-0.88,2.15 -2.54,3.12 -4.52,3.12l-6.02 0c-1.77,0 -2.69,-0.8 -3.22,-2.15l-32.67 -100.94 -45.87 98.62c-0.94,1.73 -2.5,2.91 -4.44,2.91l-13.27 0c-2.15,0 -2.84,-1.35 -1.98,-3.5l61.4 -131.91c0.95,-1.77 2.51,-2.95 4.45,-2.95l6.41 0c1.59,0 2.75,0.59 3.22,2.15l32.64 100.36 45.78 -98.21c0.75,-1.77 2.5,-2.91 4.44,-2.91l13.23 0c2.15,0 2.89,1.35 2.1,3.12z"/>
    <path class="fil1" d="M3347.96 2198.59c-1.17,-1.18 -1,-2.91 0.86,-4.47l11.08 -10.74c1.73,-1.73 3.36,-1.94 4.7,-0.6 7.44,7.05 17.54,11.34 30.77,11.34 16.6,0 31.15,-8.21 35.89,-22.79 4.25,-13.06 -1.46,-18.33 -18.14,-23.38 -19.52,-6.45 -28.63,-16.77 -22.24,-36.45 7.9,-24.34 33.68,-40.15 63.3,-40.15 15.97,0 27.41,4.47 33.8,11.12 1.33,1.35 0.83,2.91 -0.86,4.47l-10.37 9.73c-1.68,1.56 -3.37,1.94 -4.76,0.81 -6.61,-5.48 -14,-8.39 -26.1,-8.39 -15.97,0 -29.38,6.4 -33.76,19.89 -3.55,10.9 3.12,16.17 17.73,21.02 20.47,6.61 30.22,16.17 23.05,38.21 -8.85,27.26 -35.03,43.65 -64.86,43.65 -18.49,0 -31.74,-4.89 -40.09,-13.27z"/>
   </g>
  </g>
  <path class="fil1" d="M3346.21 952.62l-897.05 -827.37c-0.57,-0.53 -1.13,-0.94 -1.64,-1.28 -0.43,-0.37 -0.92,-0.76 -1.49,-1.1 -0.63,-0.4 -1.58,-0.84 -2.42,-1.16 -1.17,-0.53 -2.35,-0.94 -3.61,-1.27 -1.18,-0.3 -2.3,-0.52 -3.45,-0.61 -1.81,-0.15 -3.39,0 -4.39,0.13 -1.18,0.15 -2.28,0.33 -3.29,0.64 -1.68,0.48 -3.03,1.17 -4.14,1.77 -0.8,0.44 -1.58,0.89 -2.32,1.42 -0.67,0.4 -1.37,0.91 -1.86,1.36l-518.39 471.57 -139.66 -154.97c-0.58,-0.62 -1.15,-1.1 -1.63,-1.46 -0.45,-0.47 -1.1,-1.08 -1.94,-1.65 -0.69,-0.48 -1.06,-0.7 -1.85,-1.01 -0.93,-0.52 -1.82,-0.94 -2.81,-1.31 -1.49,-0.55 -2.99,-0.95 -4.82,-1.19 -2.49,-0.32 -4.96,-0.21 -7.66,0.46 -0.55,0.12 -1.94,0.49 -2.46,0.7 -1.66,0.62 -3.27,1.5 -4.82,2.64 -0.56,0.34 -1.13,0.73 -1.54,1.07 -0.09,0.08 -0.18,0.16 -0.27,0.24 -0.16,0.13 -0.32,0.27 -0.46,0.41l-311.49 295.73c-4.83,1.95 -8.75,5.66 -11.04,10.48l-216.92 205.97c-6.31,5.99 -8.31,15.08 -5.1,23.2 3.23,8.09 10.95,13.31 19.67,13.31l2124.51 0c8.75,0 16.49,-5.26 19.7,-13.44 3.22,-8.16 1.12,-17.31 -5.36,-23.28zm-1741.69 -218.29l0 0 -91.17 212.69 -252.95 0 181.71 -172.52 162.41 -40.17zm905.97 -202.6l0 0 -234.83 406.92 -198.97 -157.6 433.8 -249.32zm-475.81 269.86l0 0 183.41 145.43 -602.23 0 418.82 -145.43zm392.43 -270.73l0 0 -324.38 186.57 77.72 -125.55 246.66 -61.02zm-305.43 75.56l0 0 -85.83 138.62 -86.53 -96 172.36 -42.62zm-163.86 -3.09l0 0 379.44 -345.18 -183.71 296.77 -195.73 48.41zm621.88 -146.87l0 0c-0.04,-0.03 -0.08,-0.05 -0.12,-0.08 -0.46,-0.3 -1.03,-0.59 -1.61,-0.83 -1.39,-0.73 -2.89,-1.32 -4.59,-1.75 -0.62,-0.21 -1.4,-0.41 -1.96,-0.5 -2.23,-0.34 -4.51,-0.34 -6.93,0.09 -0.5,0.04 -0.98,0.13 -1.44,0.24l-350.72 86.75 226.97 -366.63 709.47 654.34 -569.07 -371.63zm673.73 490.56l0 0 -933.73 0 255.58 -442.89 678.15 442.89zm-1749.2 -231.49l0 0 182.67 -173.45 -61.47 143.47 -121.2 29.98zm172.71 -42.72l0 0 76.3 -178.02 117.08 130.17 -193.38 47.85zm128.61 11.79l0 0 -219.09 199.31 69.57 -162.33 149.52 -36.98zm-168.09 210.14l0 0 254.49 -231.51 10.46 -2.59 97.49 108.4 -362.44 125.7z"/>
 </g>
</svg>
